
<svg version="1.1" id="Layer_1" xmlns="http://www.w3.org/2000/svg" xmlns:xlink="http://www.w3.org/1999/xlink" x="0px" y="0px"
	 viewBox="0 0 435 167" style="enable-background:new 0 0 435 167;" xml:space="preserve">
<style type="text/css">
	.st0{fill:#400040;}
	.st1{fill-rule:evenodd;clip-rule:evenodd;fill:#400040;}
</style>
<g>
	<g transform="translate(154.967075, 200.024752)">
		<g>
			<path class="st0" d="M46.4-93.3c-0.7-0.2-1.3,0.2-1.5,0.8c-2.3,14-7,33.1-12,43.7c-0.8,1.2-3,4.1-5.3,2.6
				C26.5-47,24.8-54.7,27-74c1.8-16.9,6-35.3,10.8-48.8c1-3.2,0.3-7.1-2.3-9.8l-2.5-2.9c-0.8-1-2.2-1.6-3.3-1.6
				c-1.2,0.2-2,0.8-2.8,2c-2.4,5.4-4.9,12.8-6.9,21.5v-0.4c-1-4.7-3.3-8.3-6.3-10c-2.3-1.2-5.8-1.2-9.3,0.4
				c-4.6,2.2-13.3,8.7-17.8,28.2c-3.3,16.3-1,25.2,1.2,29.9c2.7,4.7,6.1,5.9,7.5,6.3C-4-59-3.5-59-2.9-59c3.7,0,8-2.6,12-9.1
				c0.2-0.4,0.3-0.6,0.7-0.8c0-0.2,0.2-0.2,0.2-0.4c1.8-3.2,3.7-6.9,5.3-11.8c-0.7,11.4-0.8,28.4,3.7,37.2c1.7,3.3,3.8,5.3,6.6,5.7
				h0.7c5.3,0,10.1-8.7,15.3-26.4c3.7-13.2,6-26.8,6.1-27C47.4-92.3,47.1-93.1,46.4-93.3z M18.5-105.7c-0.8,3.9-1.3,7.9-1.8,12
				c-3,10.2-6,17.7-9,22.8c-2.7,4.1-5.8,4.3-7.1,3.3c-1.5-1-5-3.3-1-26c3.7-21.3,11.5-24.8,14-24.4c1.8,0.4,3.5,2.6,4.1,4.7
				C18.2-111.2,18.5-108.7,18.5-105.7z"/>
		</g>
	</g>
</g>
<g>
	<g transform="translate(185.685681, 200.024752)">
		<g>
			<path class="st0" d="M89.1-93.1c-3,3-10,3.4-18.1,3.7c2.2-5.3,3.8-10.6,5.2-15.4c4.3-17.3,17.8-74.8,4.3-85.3
				c-3.2-2.6-7.5-3.4-12.5-2.2h-0.2l-1.2,0.4c-12.4,3.7-26,16.9-33.8,33c-0.3,0.8-0.2,1.8,0.5,2.2c0.5,0.4,1.3,0,1.7-0.6
				c7.4-15.6,20.4-28.4,32.2-31.7l1.3-0.4c1.3-0.2,2.3,0.2,3.3,1.4c4.3,5.5,5.5,27.6-5.5,71.9c-2.5,10.2-5.5,19.5-8.8,27.4
				c-7.1,0.6-14.3,1.6-21.1,4.3C23-79.3,16.5-68.5,14.9-60.2c-0.8,4.1-0.7,8.1,0.7,11.6v0.2c0.7,1.6,1.5,3,2.7,4.3
				c3,3.5,6.5,5.3,10.5,5.3c1.3,0,2.7-0.2,4.2-0.6c8-2.4,17.1-11.4,25.9-25.6c4.2-6.7,8-14.2,11-21.5c9.6-0.4,17.1-0.8,20.9-4.3
				c0.5-0.6,0.7-1.6,0.2-2.2C90.4-93.5,89.6-93.5,89.1-93.1z M25.2-48.6c-3.2,1-5.8,0.4-7.5-1.4c-1-2.8-1.2-6.1-0.5-9.4
				c1.5-7.7,7.6-17.5,19.9-22.3c6.1-2.4,12.6-3.5,19.1-4.1C46.4-63.8,34.3-51.4,25.2-48.6z"/>
		</g>
	</g>
</g>
<g>
	<g>
		<path class="st1" d="M268.2,108c2.4-3.6,7.3-8.5,12.9-11.6c5.6-3.2,11.9-4.6,19-4.5s15,1.7,24.6,5.3s21,9.1,31.1,13.7
			c10.2,4.6,19.1,8.3,27.6,9.6s16.7,0.2,22.9-2.8c6.2-3,10.4-7.8,12.8-11.4c2.5-3.6,3.2-5.9,4.1-7.9c0.8-2,1.7-3.6,2.1-3.5
			s0.3,2-0.4,4.6c-0.7,2.6-1.9,6-5,10.1c-3.1,4.2-8.2,9.2-13.4,12.5c-5.2,3.3-10.6,4.9-17.9,5c-7.4,0.1-16.7-1.4-26.1-4.4
			c-9.4-3.1-18.9-7.8-28.3-12.6s-18.8-9.9-27.8-11.8c-9.1-2-17.8-0.9-24.5,2.3c-6.7,3.3-11.2,8.8-13.6,11.8c-2.3,3-2.5,3.6-2.5,2.7
			C265.8,114,265.8,111.6,268.2,108z"/>
	</g>
</g>
<g>
	<g>
		<path class="st1" d="M10.7,105c2.5-3.8,7.6-8.9,13.5-12.2C30,89.5,36.6,88,44,88c7.4,0.1,15.7,1.8,25.7,5.5s21.9,9.5,32.5,14.3
			s20,8.7,28.9,10.1c8.9,1.4,17.4,0.2,23.9-2.9c6.4-3.1,10.8-8.2,13.4-11.9c2.6-3.8,3.4-6.2,4.3-8.3c0.9-2.1,1.8-3.8,2.2-3.6
			c0.4,0.1,0.3,2.1-0.4,4.8s-1.9,6.2-5.2,10.6c-3.3,4.4-8.6,9.6-14,13.1c-5.4,3.5-11,5.2-18.7,5.3s-17.4-1.4-27.3-4.7
			c-9.8-3.2-19.8-8.1-29.6-13.2c-9.8-5.1-19.6-10.3-29.1-12.4c-9.5-2.1-18.6-1-25.6,2.5c-7,3.4-11.7,9.2-14.2,12.3
			c-2.5,3.2-2.6,3.8-2.7,2.8C8.1,111.3,8.1,108.8,10.7,105z"/>
	</g>
</g>
</svg>
