
<svg version="1.1" id="Layer_1" xmlns="http://www.w3.org/2000/svg" xmlns:xlink="http://www.w3.org/1999/xlink" x="0px" y="0px"
	 viewBox="0 0 431 164" style="enable-background:new 0 0 431 164;" xml:space="preserve">
<style type="text/css">
	.st0{fill:#6b7688}
</style>
<g>
	<g transform="translate(38.777346, 156.408535)">
		<g>
			<path class="st0" d="M66.9-62.8c0.2,0.1,0.4,0.2,0.5,0.3c0.2,0.1,0.2,0.3,0.2,0.5c-0.1,0.2-0.2,0.4-0.4,0.6c0,0-0.1,0.1-0.1,0.2
				L67-61.1c-0.1,0-0.1,0-0.2,0c-1.4,0-2.2,0.3-2.6,1.1c-0.4,0.8-0.6,1.8-0.6,3c-0.4,8.4-0.8,16.8-1.3,25.2
				c-0.1,1.9-0.2,3.7-0.3,5.6c-0.1,1-0.2,2-0.4,2.9c-0.2,0.8-0.7,1.2-1.6,1.2c-0.2,0-0.4,0-0.5-0.1c-0.2-0.1-0.3-0.2-0.4-0.4
				c-0.7-1.4-0.7-8.2-0.1-20.1c0.5-10.6,0.2-16.2-1-17c-0.8-0.5-2.8-0.7-6-0.5l-53.2,3.8c-0.3,0-0.6,0-1,0h-0.1
				c-1.1-0.1-2.8,4.3-5,13.1s-3.7,15.2-4.4,19.2c-0.7,4-1.8,6.3-3.3,6.8c-0.2,0.1-0.4,0.1-0.6,0.2c-0.2,0.1-0.4,0-0.7-0.1
				c-0.3-0.1-0.5-0.3-0.6-0.5s-0.2-0.5-0.2-0.7c0-0.1,0-0.3,0-0.4c0-1.4,0.2-2.7,0.4-4c1.8-9.6,4.2-19,7.4-28.2
				c0.1-0.3,0.2-0.6,0.3-1c0.3-0.8,0.5-1.6,0.7-2.4c0.3-1-0.1-1.4-1.1-1.4c-2,0.1-4,0.2-5.9,0.4c-0.1,0-0.2,0-0.4,0.1
				c-1.5,0.1-3,0.2-4.5,0.3c-2.8,0.2-5.6,0.4-8.4,0.6h-0.1c-1.7,0.2-3.4,0.1-5.1-0.2c-0.2,0-0.3-0.1-0.5-0.2
				c-0.2-0.1-0.2-0.3-0.2-0.5c0-0.4,0.2-0.7,0.4-0.9c0.2-0.2,0.5-0.4,0.8-0.4c0.3-0.1,0.6-0.1,0.9-0.1c0.1,0,0.2,0,0.3,0
				c2.6-0.2,5.2-0.4,7.8-0.6c4.8-0.4,9.7-0.7,14.6-1c2-0.1,3.3-1.1,3.9-2.9c5.5-15.1,12-29.6,19.4-43.7c2.4-4.6,5-9.1,7.8-13.5
				c2.8-4.4,5.8-8.7,9-12.7c2.8-3.6,5.9-6.8,9.3-9.8c1.9-1.6,4-2.9,6.4-3.9c1.2-0.5,2.5-0.8,3.9-0.8c2.5-0.1,4.6,0.9,6.4,3
				c1.5,1.7,2.6,3.6,3.4,5.7c1.5,3.9,2.5,7.9,3,11.9c0.9,6.2,1.4,12.5,1.6,18.8c0.2,6.5,0.2,13,0.2,19.5c-0.1,6.5-0.2,13-0.3,19.4
				c0,0.1,0,0.3,0,0.4c0,0.3,0,0.6,0,0.9c-0.1,1,0,1.9,0.1,2.7c0.3,0.2,0.6,0.3,0.9,0.4c0.3,0,0.5,0.1,0.8,0
				C66.2-63,66.6-62.9,66.9-62.8z M59.3-73.2c0-1.2,0.1-2.3,0.1-3.5c0-5.9,0-11.8-0.1-17.7s-0.3-11.8-0.6-17.8
				c-0.3-5.7-1-11.4-2.1-17.2c-0.5-2.7-1.3-5.3-2.4-8c-0.6-1.4-1.4-2.7-2.5-3.9c-1.4-1.6-3.1-2-4.9-1.4c-1.5,0.6-2.8,1.4-4,2.4
				c-2.2,1.9-4.3,4.1-6.2,6.4c-2.9,3.5-5.6,7.1-8.1,11c-2.5,3.8-4.8,7.8-7,11.9c-4.1,7.7-8,15.6-11.5,23.6C6.3-79.1,3-70.9,0-62.6
				c-0.1,0.1-0.1,0.3-0.2,0.4c-0.2,0.3-0.3,0.8-0.3,1.4c-0.1,0.6,0.3,0.8,1,0.8c34.7-2,53.6-3,56.7-3.2c0.9,0,1.4-0.2,1.7-0.4
				c0.3-0.2,0.4-0.8,0.4-1.8c0-2.1,0-4.2,0-6.3C59.3-72.2,59.3-72.7,59.3-73.2z"/>
		</g>
	</g>
	<g transform="translate(103.223143, 156.408535)">
		<g>
			<path class="st0" d="M24.1-59.1c0.4-0.8,0.6-1.1,0.8-1c0.1,0.1,0.2,0.4,0.1,0.9c-0.1,0.6-0.2,1.2-0.4,1.9
				c-0.2,1.1-0.7,2.3-1.3,3.7c-0.6,1.4-1.3,2.7-2.1,3.9c-1.1,1.6-2.5,2.8-4.2,3.6c-1.7,0.8-3.2,1-4.5,0.6c-1.4-0.4-2.1-1.7-2.4-3.9
				c0-1.8,0.1-3.8,0.5-5.9c0.1-0.9,0.2-1.8,0.4-2.6c0-0.3-0.1-0.6-0.2-0.7c-0.2-0.2-0.4-0.2-0.6-0.2c-0.2,0-0.4,0-0.6,0
				c-1.1,0.2-2.2,0.2-3.3-0.1c-1.3-0.4-2.1-1-2.3-2c-0.2-0.9-0.2-2.2,0-3.7c0.1-1.1,0.5-1.9,1.2-2.4s1.4-0.8,2.3-0.7
				c1.2,0.1,1.9,0.6,1.8,1.4c0,0.8-0.3,1.7-0.7,2.7c-0.4,0.8-0.6,1.5-0.6,2s0.4,0.7,1.4,0.6c0.2-0.1,0.5-0.1,0.7-0.2
				c0.3-0.1,0.7-0.3,1.2-0.4s1-0.1,1.8-0.1c0.9,0,1.4,0.4,1.7,1.2c0.3,0.8,0.4,1.7,0.4,2.8c0,1.1-0.2,2.3-0.3,3.4
				c-0.2,1.5-0.3,2.7-0.3,3.8c0,1,0.3,1.7,0.9,1.8c0.8,0.2,2-0.5,3.6-2.2C20.5-52.3,22.2-55.1,24.1-59.1z"/>
		</g>
	</g>
	<g transform="translate(116.670407, 156.408535)">
		<g>
			<path class="st0" d="M24.2-79c0.3,0,0.4,0.2,0.5,0.6c0.1,0.3,0.1,0.7,0,1s-0.3,0.5-0.5,0.5L14.8-77v0.3c0,1.4-0.1,3-0.2,5
				c-0.2,4.1-0.3,8.2-0.3,12.4c0,1.4,0.1,3.4,0.3,5.9s0.6,4.7,1.2,6.7c0,0.1,0.2,0.4,0.4,0.7c0.2,0.4,0.5,0.9,0.7,1.4s0.3,1,0.3,1.3
				s-0.3,0.4-0.8,0.3c-1.7-0.6-3-1.9-3.9-4s-1.5-4.6-1.9-7.4S10-60,10-62.7c0-2.7,0-4.9,0.1-6.6c0.1-1.2,0.1-2.3,0.1-3.5
				c0-1.5,0.1-2.9,0.1-4.3l-7.1-0.1c-0.6,0-0.9-0.1-1-0.4c-0.1-0.2,0-0.5,0.2-0.7s0.5-0.4,0.8-0.4l7.2-0.1l0.5-6.9
				c0.1-1.1,0.2-2.2,0.2-3.4c0-0.6,0-1.2,0.1-1.8c0-0.9,0.2-1.7,0.6-2.5c0.5-0.7,1.1-0.9,1.9-0.8c0.6,0.2,1,0.7,1.1,1.4
				c0.1,1.1,0.1,2.2,0.1,3.4c0,0.6,0,1.3,0,1.9c0,0.7,0,1.4,0,2.2l-0.2,6.5L24.2-79z"/>
		</g>
	</g>
	<g transform="translate(124.646481, 156.408535)">
		<g>
			<path class="st0" d="M52.8-61.2c0.2-0.3,0.5-0.4,0.7-0.3s0.2,0.4,0.1,0.8c-0.5,2.5-3.3,4.6-8.4,6.4c-3.2,1.2-6.1,1.8-8.6,1.7
				c-2.5-0.1-4.6-1.1-6.1-3c-1.5-1.8-2.4-4.7-2.5-8.7c-0.1-1.8-0.5-2.5-1.1-2.2s-1.3,1.2-2.2,2.7c-0.9,1.5-1.7,3.2-2.6,5.1
				c-0.8,1.9-1.6,3.6-2.2,5c-0.6,1.4-0.9,2.2-1,2.4c-0.1,0.3-0.2,0.6-0.3,0.9c-0.2,0.9-0.6,1.7-1,2.5c-0.4,0.7-0.9,1.1-1.6,1.3
				c-0.7,0.2-1.4,0.2-2.2-0.1c-0.5-0.3-0.8-0.6-1-1.1c-0.2-0.8-0.3-1.6-0.2-2.4c0-0.1,0-0.2,0-0.3c0.3-3.8,0.4-9.5,0.3-17
				c0-4.8,0-9.9,0.1-15.3s0.2-10.8,0.5-16c0.3-5.7,0.9-10.9,1.7-15.7c0.8-4.8,2.1-8.6,3.9-11.5c1.8-2.9,4.3-4.6,7.5-4.9
				c1.4-0.1,2.7,0,4.1,0.4c1.4,0.4,2.7,1.2,4,2.5c2.7,2.5,4.6,6.1,5.8,10.6c1.2,4.5,1.3,9.7,0.4,15.6C40-96,37.7-89.7,34-83.1
				c-3.7,6.7-9.1,13.4-16.3,20.2c-0.1,0.2-0.1,0.3-0.1,0.4c-0.1,0.1-0.1,0.1-0.1,0.2v0.1v0.1l0,0l0,0c0,0,0,0,0,0.1v0.1
				c0,0,0,0.1,0,0.2s0,0.2,0,0.4c0,0.1,0,0.3,0,0.5s0,0.5,0,0.7c0,0.3,0,0.6,0,1c0.4-0.7,0.9-1.5,1.3-2.3c1-1.9,2.1-3.6,3.4-5.3
				c1.3-1.6,3.1-2.7,5.3-3c0.9-0.1,1.9,0,3,0.2c1,0.3,1.7,1,2.1,2.2c0.2,1.4,0.3,2.9,0.3,4.4c-0.1,1.1-0.1,2.1,0,3s0.4,1.8,1,2.4
				c0.5,0.7,1.5,1.1,2.8,1.3c1.8,0.3,3.8,0.2,6-0.2c2.2-0.4,4.2-1,6-1.9C50.5-59,51.8-60,52.8-61.2z M22.5-123.2
				c-1.1,3-2,7.2-2.7,12.8s-1.2,11.5-1.6,17.7c-0.3,6.2-0.6,11.7-0.6,16.6c-0.1,4.8-0.1,8-0.1,9.5c2.7-2.2,5.5-5.5,8.5-10
				c3-4.5,5.6-9.4,7.9-14.8s3.7-10.5,4.1-15.3c0.3-4.2-0.3-8.3-1.8-12.3c-1.5-4.1-3.3-7-5.5-8.7c-1.5-1.1-3.1-1.2-4.5-0.3
				C24.6-127.2,23.4-125.6,22.5-123.2z"/>
		</g>
	</g>
	<g transform="translate(153.60644, 156.408535)">
		<g>
			<path class="st0" d="M28.7-50.3c-1.7,0-3.1-0.8-4.2-2.3s-1.7-3.4-2-5.7c-0.3-2.3-0.1-4.6,0.7-7c0.2-0.7,0.7-1.3,1.4-1.6
				c0.6-0.2,1.1-0.2,1.7,0.1c0.6,0.2,0.9,0.6,0.9,1.2c0,0.5-0.1,1-0.1,1.5C27-63.7,27-63.4,26.9-63c-0.1,1.4-0.1,2.9,0.1,4.6
				s0.6,3.1,1.3,4.3c0.7,0.9,1.6,1.1,2.5,0.4s1.7-1.8,2.4-3.3c0.5-1.2,0.9-2.4,1.2-3.6c0.3-1.2,0.5-2.1,0.6-2.7
				c0.1-0.3,0.1-0.4,0.1-0.5c0.1-0.5,0.2-1,0.4-1.5c0.2-0.7,0.4-1.4,0.6-2.1c0.4-1.3,1.3-1.9,2.8-1.7c0.9,0.1,1.4,0.5,1.5,1.4
				c0.1,1.1,0.1,2.2,0.1,3.3c0,0.5-0.1,1-0.1,1.4c-0.1,2-0.2,4.1-0.1,6.3c0.1,2.2,0.4,4,1.1,5.5c0.1,0.2,0.1,0.4,0.1,0.8
				c0,0.3-0.1,0.7-0.3,1c-0.2,0.3-0.5,0.5-0.9,0.6s-1-0.1-1.7-0.5c-1.1-0.7-1.8-1.6-2.1-2.8c-0.3-1.2-0.5-2.3-0.5-3.4
				c0-0.6-0.1-1.2-0.1-1.7c-0.4,2.2-1.3,4-2.7,5.2C31.9-51,30.4-50.3,28.7-50.3z"/>
		</g>
	</g>
	<g transform="translate(170.085931, 156.408535)">
		<g>
			<path class="st0" d="M46.4-59.1c0.4-0.8,0.6-1.1,0.8-1c0.1,0.1,0.2,0.4,0.1,0.9c-0.1,0.6-0.2,1.2-0.4,1.9
				c-0.2,1.1-0.7,2.3-1.3,3.7c-0.6,1.4-1.3,2.7-2.1,3.9c-1.1,1.6-2.5,2.8-4.2,3.6c-1.7,0.8-3.2,1-4.5,0.6c-1.4-0.4-2.1-1.7-2.4-3.9
				c0-1.8,0.1-3.8,0.5-5.9c0.1-0.9,0.2-1.8,0.4-2.6c0-0.3-0.1-0.6-0.2-0.7c-0.2-0.2-0.4-0.2-0.6-0.2s-0.4,0-0.6,0
				c-1.1,0.2-2.2,0.2-3.3-0.1c-1.3-0.4-2.1-1-2.3-2c-0.2-0.9-0.2-2.2,0-3.7c0.1-1.1,0.5-1.9,1.2-2.4s1.4-0.8,2.3-0.7
				c1.2,0.1,1.9,0.6,1.8,1.4c0,0.8-0.3,1.7-0.7,2.7c-0.4,0.8-0.6,1.5-0.6,2s0.4,0.7,1.4,0.6c0.2-0.1,0.5-0.1,0.7-0.2
				c0.3-0.1,0.7-0.3,1.2-0.4s1-0.1,1.8-0.1c0.9,0,1.4,0.4,1.7,1.2c0.3,0.8,0.4,1.7,0.4,2.8c0,1.1-0.2,2.3-0.3,3.4
				c-0.2,1.5-0.3,2.7-0.3,3.8c0,1,0.3,1.7,0.9,1.8c0.8,0.2,2-0.5,3.6-2.2C42.8-52.3,44.5-55.1,46.4-59.1z"/>
		</g>
	</g>
	<g transform="translate(183.533196, 156.408535)">
	</g>
	<g transform="translate(194.695305, 156.408535)">
		<g>
			<path class="st0" d="M98.4-56.4c0.1-0.5,0.1-1,0.1-1.5c0-0.8-0.4-1.1-1.1-1c-0.6,0.1-1.3,0.2-1.9,0.2
				c-10.8,1.7-21.6,3.8-32.3,6.3c-3.4,0.8-6.7,1.7-10,2.6s-6.6,2-9.8,3.3c-3.9,1.5-7.6,3.6-10.9,6.3c-2.1,1.7-3.9,3.8-5.3,6.1
				c-2.8,4.8-2.9,9.6-0.3,14.5c1.3,2.4,3,4.4,5.1,6.2c4.7,4.3,10.1,7.3,16.2,9.1c3,1,6.1,1.5,9.3,1.5c3.8,0,7.5-0.6,11-2
				c3.2-1.3,6.2-3,8.8-5.1c2.6-2.1,5-4.5,7.1-7.2c1.6-2.1,3-4.3,4.2-6.6c1.2-2.3,2.3-4.6,3.3-7.1c1.7-4.1,3-8.3,4.1-12.7
				C96.8-47.7,97.7-52,98.4-56.4z M100.1-143.9c0.1,0,0.3,0,0.5-0.1c1.1-0.1,2.1-0.3,3.2-0.5c0.9-0.2,1.7-0.3,2.6-0.4
				c2.3-0.2,4.5-0.6,6.8-0.9c0.8-0.1,1.7-0.2,2.5-0.4c2.4-0.3,4.7-0.7,7.1-1.1c0.7-0.1,1.4-0.2,2.1-0.3h0.3c0.2-0.1,0.5-0.1,0.8-0.1
				c0.1,0,0.3,0,0.5,0s0.4,0,0.6,0c0.2,0,0.5,0.1,0.8,0.2c0.1,0,0.1,0.1,0.2,0.2c0.1,0.1,0.2,0.2,0.2,0.4c0,0.1,0,0.2-0.1,0.3
				c0,0.1-0.1,0.2-0.1,0.3c-0.3,0.3-0.6,0.5-1,0.6c-0.4,0.1-0.7,0.2-1.1,0.2c-0.1,0-0.2,0.1-0.3,0.1l-5.4,0.9
				c-3.5,0.6-7,1.1-10.4,1.7l-2.5,0.4c-2.1,0.2-4.3,0.7-6.4,1.3c0.3,1.4,0.7,2.7,1,4c0.5,1.9,0.9,3.7,1.3,5.5
				c0.9,5.2,1.5,10.3,1.9,15.5c1.3,17.2,1.2,34.4-0.3,51.6v0.1c0,0.2,0,0.4,0,0.6c0,0.8,0.2,1.2,0.7,1.4c0.7,0,1.3-0.1,1.9-0.2
				c1-0.1,2-0.2,2.9-0.2c1.7-0.1,3.4-0.2,5.2-0.2h1.1c0.2,0,0.5,0.1,0.7,0.3c0.2,0.2,0.3,0.4,0.3,0.7c0,0.2-0.1,0.5-0.3,0.6
				c-0.2,0.2-0.4,0.3-0.6,0.4c-0.6,0.2-1.2,0.3-1.8,0.3c-2.9,0.1-5.7,0.4-8.5,0.9c-0.8,0.1-1.3,0.2-1.6,0.5
				c-0.2,0.2-0.4,0.8-0.5,1.6c-0.3,1.4-0.5,2.9-0.7,4.3c-0.3,2.1-0.7,4.2-1.1,6.4c-1.5,7.7-3.9,15-7.2,22c-2.3,4.8-5.1,9-8.5,12.7
				c-3.4,3.7-7.4,6.8-12.2,9.2C69-0.2,63.1,1.3,57.2,1.2C52.7,1.3,48,0.4,43.3-1.3c-5.7-2.1-10.7-5.2-15.1-9.4
				c-2.1-1.9-3.8-4-5.1-6.4c-2.6-4.9-2.8-10-0.5-15.1c1-2.1,2.2-4.1,3.8-5.8c1.5-1.7,3.2-3.2,5.1-4.6c2.3-1.7,4.7-3.2,7.1-4.4
				c2.5-1.2,5.1-2.3,7.8-3.3c3.9-1.4,7.9-2.5,11.8-3.6c4-1,8-2,12-2.8c8.9-1.9,17.8-3.4,26.9-4.6c1.2-0.1,1.9-0.3,2.2-0.6
				c0.3-0.3,0.5-1.1,0.6-2.4c1.1-13.8,1.4-27.6,0.9-41.5c-0.1-4.3-0.4-8.7-0.8-13c-0.4-4.3-1-8.7-1.7-13c-0.4-2.4-1-4.7-1.6-6.9
				c-0.2-0.8-0.5-1.3-0.9-1.6l-0.4-0.1c-0.1,0-0.3,0-0.4,0.1l-7.7,1.2c-4.2,0.7-8.4,1.3-12.6,1.9c-12.7,1.9-25.2,3.4-37.7,4.7
				c-1.4,0.2-2.8,0.3-4.2,0.2c-1.1,0-2.1,0-3.1-0.1c-0.2,0-0.3-0.1-0.5-0.2c-0.2-0.1-0.3-0.3-0.4-0.5c-0.1-0.6,0.1-1,0.5-1.3
				c0.9-0.5,1.9-0.8,2.9-0.8c6.7-0.7,13.3-1.4,19.9-2.2c6.7-0.8,13.3-1.7,19.9-2.6c5.4-0.8,10.8-1.5,16.1-2.2c0.6,0,1.3-0.1,2-0.2
				c1.1,0,2.2-0.2,3.2-0.4c1.1-0.2,2.1-0.6,3.1-1.3c0.1,0,0.3,0,0.4-0.1c0.1,0,0.2,0,0.4,0c0.1,0,0.2,0,0.2,0l0.4-0.1
				c0.1,0,0.3,0,0.4,0.1C98.9-144,99.5-143.9,100.1-143.9z"/>
		</g>
	</g>
	<g transform="translate(252.637196, 156.408535)">
		<g>
			<path class="st0" d="M62.7-66.4c2.5-0.1,4.3,1.1,5.2,3.5c0.7,1.8,0.9,3.8,0.6,5.8c-0.3,2.1-1,3.8-2.1,5.1c-1,1.2-2.3,2.1-3.8,2.4
				c-1.5,0.4-2.9,0.2-4.4-0.4c-1.4-0.6-2.5-1.8-3.4-3.5c-0.6-1.6-0.9-3.1-0.6-4.7c0.2-1.3,0.6-2.6,1.1-3.9c0.6-1.5,1.6-2.7,2.9-3.4
				C59.6-66.1,61-66.4,62.7-66.4z M61.6-51.6c1.1-0.6,1.8-1.6,2.3-2.8c0.5-1.2,0.7-2.5,0.8-3.9c0.1-1.4-0.1-2.7-0.3-3.9
				c-0.4-1.7-0.9-2.5-1.5-2.5S61.6-64.1,61-63c-0.7,1.1-1.2,2.4-1.8,4c-0.5,1.5-0.8,3-0.9,4.4s0.1,2.4,0.6,3.1
				C59.3-50.9,60.2-51,61.6-51.6z"/>
		</g>
	</g>
	<g transform="translate(264.436512, 156.408535)">
		<g>
			<path class="st0" d="M77.8-59.1c0.4-0.8,0.6-1.1,0.8-1c0.1,0.1,0.2,0.4,0.1,0.9c-0.1,0.6-0.2,1.2-0.4,1.9
				c-0.2,1.1-0.7,2.3-1.3,3.7c-0.6,1.4-1.3,2.7-2.1,3.9c-1.1,1.6-2.5,2.8-4.2,3.6c-1.7,0.8-3.2,1-4.5,0.6c-1.4-0.4-2.1-1.7-2.4-3.9
				c0-1.8,0.1-3.8,0.5-5.9c0.1-0.9,0.2-1.8,0.4-2.6c0-0.3-0.1-0.6-0.2-0.7c-0.2-0.2-0.4-0.2-0.6-0.2s-0.4,0-0.6,0
				c-1.1,0.2-2.2,0.2-3.3-0.1c-1.3-0.4-2.1-1-2.3-2c-0.2-0.9-0.2-2.2,0-3.7c0.1-1.1,0.5-1.9,1.2-2.4s1.4-0.8,2.3-0.7
				c1.2,0.1,1.9,0.6,1.8,1.4c0,0.8-0.3,1.7-0.7,2.7c-0.4,0.8-0.6,1.5-0.6,2s0.4,0.7,1.4,0.6c0.2-0.1,0.5-0.1,0.7-0.2
				c0.3-0.1,0.7-0.3,1.2-0.4s1-0.1,1.8-0.1c0.9,0,1.4,0.4,1.7,1.2c0.3,0.8,0.4,1.7,0.4,2.8c0,1.1-0.2,2.3-0.3,3.4
				c-0.2,1.5-0.3,2.7-0.3,3.8c0,1,0.3,1.7,0.9,1.8c0.8,0.2,2-0.5,3.6-2.2C74.3-52.3,76-55.1,77.8-59.1z"/>
		</g>
	</g>
	<g transform="translate(277.883777, 156.408535)">
		<g>
			<path class="st0" d="M105.4-105.4c0.8,6.2,0.6,11.9-0.4,17.2c-1,5.3-2.8,10.4-5.5,15.1c-2.7,4.8-6,9.4-10,13.8
				c-0.4,0.4-0.5,0.7-0.5,1s0.2,0.6,0.5,1.1c0.8,1.1,1.7,2.2,2.6,3.2c1,1,2.1,1.9,3.3,2.5c0.9,1,1.1,1.7,0.4,2.1
				c-0.6,0.3-1.8,0.1-3.6-0.6c-1.7-0.8-3.7-2.3-6-4.7c-0.4-0.5-0.9-0.6-1.5-0.2s-1.2,0.8-1.8,1.2c-0.5,0.4-1.1,0.8-1.6,1.1
				c-1.8,1.2-3.7,2.3-5.8,3.1c-2.1,1-4.4,1.3-6.8,1.1c-3.7-0.4-5.5-2.5-5.7-6.1c-0.1-2.6,0.4-4.9,1.6-6.9s2.8-3.5,4.8-4.5
				s4.4-1.2,7-0.6c0.3,0.1,0.8,0.2,1.2,0.3c0.3,0,0.7,0.1,1.1,0.3c-0.3-0.6-0.6-1.2-0.8-1.6c-0.3-0.8-0.7-1.5-1-2.1
				c-1.8-3.7-3.2-7.8-4.3-12.6c-1.1-4.7-1.7-9.6-1.7-14.5s0.8-9.5,2.5-13.8c1.7-4.3,4.4-7.8,8.1-10.5c2.4-1.6,4.8-2.5,7.4-2.6
				c2.6-0.1,5,0.4,7.2,1.7c2.3,1.2,4.1,3.1,5.6,5.6C103.8-112.9,104.9-109.3,105.4-105.4z M80.9-56.7c0.5-0.4,0.6-0.9,0.2-1.5
				c-0.2-0.3-0.5-0.6-0.8-0.9c-0.7-0.9-1.5-1.7-2.4-2.6s-1.8-1.6-2.8-2.1s-2-0.5-3-0.1c-1.3,0.6-2.5,1.8-3.3,3.4
				c-0.9,1.6-1.4,3.3-1.6,5s0.2,3,1,3.9s2.2,1,4.3,0.2C75.5-52.8,78.3-54.5,80.9-56.7z M87.4-63.2c4.2-4.8,7.2-9.6,9.3-14.3
				c2-4.7,3.4-10.2,4.2-16.5c0.2-1.5,0.2-3.6,0.2-6.1s-0.2-5.1-0.7-7.8c-0.5-2.7-1.2-5.2-2.4-7.4c-1.1-2.2-2.7-3.8-4.7-4.8
				s-4.5-1-7.6,0c-3.5,2-6.1,4.6-7.7,8c-1.6,3.3-2.6,7.1-2.8,11.1c-0.2,4.1,0,8.3,0.8,12.5c0.8,4.2,1.9,8.3,3.2,12.1
				c1.4,3.8,2.8,7.1,4.4,10c0.2,0.4,0.4,0.7,0.6,1.1c0.5,1.1,1.2,2.1,2.1,3.1c0.1-0.1,0.2-0.2,0.4-0.3C87-62.7,87.2-62.9,87.4-63.2z
				"/>
		</g>
	</g>
	<g transform="translate(304.800279, 156.408535)">
		<g>
			<path class="st0" d="M115.9-61.9c0.4-0.5,0.7-0.8,1.1-1c0.4-0.2,0.6-0.2,0.7,0c0.1,0.2-0.1,0.7-0.6,1.5c-1.2,1.7-2.8,3.4-5.1,4.9
				c-2.2,1.5-4.7,2.9-7.4,4s-5.4,1.8-7.9,2.2c-2.6,0.3-4.8,0.2-6.5-0.5c-1.8-0.7-2.9-2-3.3-4.1c-1.5,2.4-3.3,4.4-5.4,5.7
				c-2.1,1.4-4,2-5.9,1.7c-2.1-0.3-3.5-1.1-4.2-2.4s-0.9-2.8-0.7-4.5c0.2-1.7,0.7-3.3,1.5-4.8c0.6-1.2,1.4-2.2,2.5-3.2
				s2.2-1.8,3.4-2.3c1.5-0.8,2.9-1.1,4.4-1s3,0.6,4.7,1.5c0,0,0,0,0.1-0.1c0-0.2,0-0.4,0.1-0.6s0.2-0.4,0.4-0.6
				c0.3-0.2,0.7-0.4,1.1-0.5c0.5-0.1,0.9-0.2,1.3-0.1c0.7,0.1,1.1,0.5,1.3,1c0.2,0.6,0.2,1.2,0.1,1.8c-0.1,0.7-0.2,1.2-0.3,1.7
				c0,0.1,0,0.2,0,0.3c-0.7,2.8-0.5,4.8,0.8,6c1.2,1.1,3,1.7,5.2,1.6c2.3-0.1,4.7-0.6,7.3-1.5s4.9-1.9,7-3.1
				C113.6-59.6,115.1-60.8,115.9-61.9z M76.4-51.3c0.9,0.6,1.9,0.5,2.9-0.2s2.1-1.8,3-3.2c1-1.4,1.8-2.8,2.4-4.1
				c0.6-1.4,1-2.4,1.1-3.1c-2.1-1.1-3.8-1.3-5.3-0.6c-1.5,0.7-2.6,1.8-3.4,3.4s-1.3,3.1-1.4,4.6C75.6-52.9,75.8-51.9,76.4-51.3z"/>
		</g>
	</g>
</g>
</svg>
